<svg xmlns="http://www.w3.org/2000/svg" width="512" height="512" style="" viewBox="0 0 512 512" data-bbox="73.53674788173066 191.18180295974025 356.5404490103838 140.97751239969648"><g transform="matrix(1, 0, 0, 1, -54.4632568359375, -6.428183078765869)"><g><g><path d="M176.742 88.385c0 1.841-1.492 3.334-3.334 3.334H3.334C1.493 91.719 0 90.225 0 88.385l0 0 c0-1.841 1.493-3.333 3.333-3.333h170.074C175.25 85.051 176.742 86.544 176.742 88.385L176.742 88.385z" transform="matrix(3.980360682125157e-17, 0.6500424146652222, -0.7675430178642273, 4.699844695029496e-17, 199.30972290039062, 199.37977600097656)"></path><path d="M176.742 88.385c0 1.841-1.492 3.334-3.334 3.334H3.334C1.493 91.719 0 90.225 0 88.385l0 0 c0-1.841 1.493-3.333 3.333-3.333h170.074C175.25 85.051 176.742 86.544 176.742 88.385L176.742 88.385z" transform="matrix(0.33116891980171204, 0.6154685020446777, -0.7267194986343384, 0.3910306692123413, 194.65399169921875, 165.2754669189453)"></path><path d="M176.742 88.385c0 1.841-1.492 3.334-3.334 3.334H3.334C1.493 91.719 0 90.225 0 88.385l0 0 c0-1.841 1.493-3.333 3.333-3.333h170.074C175.25 85.051 176.742 86.544 176.742 88.385L176.742 88.385z" transform="matrix(-0.3443513512611389, 0.620334804058075, -0.7215301990509033, -0.4005252718925476, 313.6054382324219, 234.34576416015625)"></path></g><path d="M176.742 88.385c0 1.841-1.492 3.334-3.334 3.334H3.334C1.493 91.719 0 90.225 0 88.385l0 0 c0-1.841 1.493-3.333 3.333-3.333h170.074C175.25 85.051 176.742 86.544 176.742 88.385L176.742 88.385z" transform="matrix(4.0089305078660036e-17, 0.654708206653595, -0.7675430178642273, 4.699844695029496e-17, 316.5679931640625, 198.55511474609375)"></path></g><path d="M176.742 88.385c0 1.841-1.492 3.334-3.334 3.334H3.334C1.493 91.719 0 90.225 0 88.385l0 0 c0-1.841 1.493-3.333 3.333-3.333h170.074C175.25 85.051 176.742 86.544 176.742 88.385L176.742 88.385z" transform="matrix(0.016297858208417892, 0, 0, 0.7242194414138794, 187.4611358642578, 242.55699157714844)"></path></g><g transform="matrix(1, 0, 0, 0.9709371328353882, -67.86640167236328, 7.839555263519287)"><path transform="matrix(0.4714198410511017, 0, 0, 0.5564063787460327, 298.3375244140625, 257.9347229003906)" fill="rgba(239, 217, 100, 1)" data-type="rect" data-x="0" data-y="84.525" data-width="176.742" data-height="7.219" d="M0 84.525H176.742 V91.744 H0 Z"></path><path transform="matrix(3.9739715390737975e-17, 0.6489988565444946, -0.6688423156738281, 4.095476430123957e-17, 359.6997985839844, 194.2763214111328)" fill="rgba(239, 217, 100, 1)" data-type="rect" data-x="0" data-y="84.525" data-width="176.742" data-height="7.219" d="M0 84.525H176.742 V91.744 H0 Z"></path></g><g transform="matrix(1, 0, 0, 1, -42.3375358581543, 23.177635192871094)" fill="#000000"><path transform="matrix(0.4714198410511017, 0, 0, 0.5564063787460327, 298.3375244140625, 257.9347229003906)" fill="#000000" data-type="rect" data-x="0" data-y="84.525" data-width="176.742" data-height="7.219" d="M0 84.525H176.742 V91.744 H0 Z"></path><path transform="matrix(3.9739715390737975e-17, 0.6489988565444946, -0.6688423156738281, 4.095476430123957e-17, 359.6997985839844, 194.2763214111328)" fill="#000000" data-type="rect" data-x="0" data-y="84.525" data-width="176.742" data-height="7.219" d="M0 84.525H176.742 V91.744 H0 Z"></path></g><g transform="matrix(1, 0, 0, 1, -62.84934997558594, -1.7745925188064575)"><path transform="matrix(0.513502836227417, 0, 0, 0.5465701818466187, 402.1690368652344, 259.4714050292969)" data-type="rect" data-x="0" data-y="84.525" data-width="176.742" data-height="7.219" d="M0 84.525H176.742 V91.744 H0 Z"></path><path transform="matrix(-0.48904600739479065, 0.5932605266571045, -0.42174702882766724, -0.3476613163948059, 527.2967529296875, 232.71153259277344)" data-type="rect" data-x="0" data-y="84.525" data-width="176.742" data-height="7.219" d="M0 84.525H176.742 V91.744 H0 Z"></path><path transform="matrix(0.5062721371650696, 0, 0, 0.5465701818466187, 402.1690368652344, 153.18092346191406)" data-type="rect" data-x="0" data-y="84.525" data-width="176.742" data-height="7.219" d="M0 84.525H176.742 V91.744 H0 Z"></path></g></svg>
