<?xml version="1.0" standalone="no"?>
<!DOCTYPE svg PUBLIC "-//W3C//DTD SVG 20010904//EN"
 "http://www.w3.org/TR/2001/REC-SVG-20010904/DTD/svg10.dtd">
<svg version="1.0" xmlns="http://www.w3.org/2000/svg"
 width="165.000000pt" height="68.000000pt" viewBox="0 0 165.000000 68.000000"
 preserveAspectRatio="xMidYMid meet">

<g transform="translate(0.000000,68.000000) scale(0.100000,-0.100000)"
fill="#000000" stroke="none">
<path d="M30 396 c0 -164 4 -256 10 -256 6 0 10 81 10 222 0 122 3 218 8 214
4 -4 61 -105 127 -224 66 -119 127 -218 135 -220 10 -1 52 64 130 205 63 114
120 217 125 228 7 14 11 -46 13 -202 1 -137 6 -223 12 -223 6 0 10 95 10 255
0 144 -4 255 -9 255 -5 0 -69 -108 -142 -240 -73 -132 -136 -240 -139 -240 -3
0 -64 107 -136 237 -72 130 -136 239 -142 241 -9 3 -12 -61 -12 -252z"/>
<path d="M1230 640 c0 -6 65 -10 175 -10 96 0 175 -2 175 -5 0 -4 -109 -143
-282 -357 -43 -54 -78 -102 -78 -108 0 -6 70 -10 195 -10 120 0 195 4 195 10
0 6 -69 11 -175 12 l-174 3 179 227 c99 125 180 232 180 238 0 6 -67 10 -195
10 -123 0 -195 -4 -195 -10z"/>
<path d="M840 295 l0 -255 180 0 c153 0 180 2 180 15 0 13 -25 15 -165 15
l-165 0 0 240 c0 207 -2 240 -15 240 -13 0 -15 -35 -15 -255z"/>
</g>
</svg>
