<svg xmlns="http://www.w3.org/2000/svg" xmlns:xlink="http://www.w3.org/1999/xlink" version="1.1" xml:space="preserve" viewBox="63.45 188.4 349.02 138.21">
<desc>Created with Fabric.js 4.6.0</desc>
<defs>
</defs>
<g transform="matrix(0.98 0 0 0.98 242.17 251.89)" id="3eCLt2OdA0KTf8zBzwmOX">
<g style="" vector-effect="non-scaling-stroke">
		<g transform="matrix(0 0.65 -0.77 0 -178.99 -5.6)" id="V3JUv7gm4L57MZN-43CUj">
<path style="stroke: none; stroke-width: 1; stroke-dasharray: none; stroke-linecap: butt; stroke-dashoffset: 0; stroke-linejoin: miter; stroke-miterlimit: 4; fill: rgb(0,0,0); fill-rule: nonzero; opacity: 1;" vector-effect="non-scaling-stroke" transform=" translate(-88.37, -88.39)" d="M 176.742 88.385 C 176.742 90.226 175.25 91.71900000000001 173.408 91.71900000000001 L 3.334 91.71900000000001 C 1.493 91.719 0 90.225 0 88.385 L 0 88.385 C 0 86.54400000000001 1.493 85.052 3.333 85.052 L 173.407 85.052 C 175.25 85.051 176.742 86.544 176.742 88.385 L 176.742 88.385 z" stroke-linecap="round"/>
</g>
		<g transform="matrix(0.33 0.62 -0.73 0.39 -150.78 -8.2)" id="Qfb2H5UtzUf56_frVeaUw">
<path style="stroke: none; stroke-width: 1; stroke-dasharray: none; stroke-linecap: butt; stroke-dashoffset: 0; stroke-linejoin: miter; stroke-miterlimit: 4; fill: rgb(0,0,0); fill-rule: nonzero; opacity: 1;" vector-effect="non-scaling-stroke" transform=" translate(-88.37, -88.39)" d="M 176.742 88.385 C 176.742 90.226 175.25 91.71900000000001 173.408 91.71900000000001 L 3.334 91.71900000000001 C 1.493 91.719 0 90.225 0 88.385 L 0 88.385 C 0 86.54400000000001 1.493 85.052 3.333 85.052 L 173.407 85.052 C 175.25 85.051 176.742 86.544 176.742 88.385 L 176.742 88.385 z" stroke-linecap="round"/>
</g>
		<g transform="matrix(-0.34 0.62 -0.73 -0.4 -91.06 -8.66)" id="Eh4UYsfqtC5pQfj9mBn79">
<path style="stroke: none; stroke-width: 1; stroke-dasharray: none; stroke-linecap: butt; stroke-dashoffset: 0; stroke-linejoin: miter; stroke-miterlimit: 4; fill: rgb(0,0,0); fill-rule: nonzero; opacity: 1;" vector-effect="non-scaling-stroke" transform=" translate(-88.37, -88.39)" d="M 176.742 88.385 C 176.742 90.226 175.25 91.71900000000001 173.408 91.71900000000001 L 3.334 91.71900000000001 C 1.493 91.719 0 90.225 0 88.385 L 0 88.385 C 0 86.54400000000001 1.493 85.052 3.333 85.052 L 173.407 85.052 C 175.25 85.051 176.742 86.544 176.742 88.385 L 176.742 88.385 z" stroke-linecap="round"/>
</g>
		<g transform="matrix(0 0.65 -0.77 0 -61.73 -6.02)" id="IXJ_gSPSplSpef9m5sMbv">
<path style="stroke: none; stroke-width: 1; stroke-dasharray: none; stroke-linecap: butt; stroke-dashoffset: 0; stroke-linejoin: miter; stroke-miterlimit: 4; fill: rgb(0,0,0); fill-rule: nonzero; opacity: 1;" vector-effect="non-scaling-stroke" transform=" translate(-88.37, -88.39)" d="M 176.742 88.385 C 176.742 90.226 175.25 91.71900000000001 173.408 91.71900000000001 L 3.334 91.71900000000001 C 1.493 91.719 0 90.225 0 88.385 L 0 88.385 C 0 86.54400000000001 1.493 85.052 3.333 85.052 L 173.407 85.052 C 175.25 85.051 176.742 86.544 176.742 88.385 L 176.742 88.385 z" stroke-linecap="round"/>
</g>
		<g transform="matrix(0.02 0 0 0.72 -121.56 44.14)" id="1SybC-KSyxvDU4z85Gkbx">
<path style="stroke: none; stroke-width: 1; stroke-dasharray: none; stroke-linecap: butt; stroke-dashoffset: 0; stroke-linejoin: miter; stroke-miterlimit: 4; fill: rgb(0,0,0); fill-rule: nonzero; opacity: 1;" vector-effect="non-scaling-stroke" transform=" translate(-88.37, -88.39)" d="M 176.742 88.385 C 176.742 90.226 175.25 91.71900000000001 173.408 91.71900000000001 L 3.334 91.71900000000001 C 1.493 91.719 0 90.225 0 88.385 L 0 88.385 C 0 86.54400000000001 1.493 85.052 3.333 85.052 L 173.407 85.052 C 175.25 85.051 176.742 86.544 176.742 88.385 L 176.742 88.385 z" stroke-linecap="round"/>
</g>
		<g transform="matrix(0.47 0 0 0.54 16.13 49.89)" id="bL0ynA8sKZ_-7sKDO-O8O">
<path style="stroke: none; stroke-width: 1; stroke-dasharray: none; stroke-linecap: butt; stroke-dashoffset: 0; stroke-linejoin: miter; stroke-miterlimit: 4; fill: rgb(239,217,100); fill-rule: nonzero; opacity: 1;" vector-effect="non-scaling-stroke" transform=" translate(-88.37, -88.13)" d="M 0 84.525 L 176.742 84.525 L 176.742 91.744 L 0 91.744 Z" stroke-linecap="round"/>
</g>
		<g transform="matrix(0 0.63 -0.67 0 -23.11 -3.84)" id="OlW9YM1x4RAz_4XfCa9Qv">
<path style="stroke: none; stroke-width: 1; stroke-dasharray: none; stroke-linecap: butt; stroke-dashoffset: 0; stroke-linejoin: miter; stroke-miterlimit: 4; fill: rgb(239,217,100); fill-rule: nonzero; opacity: 1;" vector-effect="non-scaling-stroke" transform=" translate(-88.37, -88.13)" d="M 0 84.525 L 176.742 84.525 L 176.742 91.744 L 0 91.744 Z" stroke-linecap="round"/>
</g>
		<g transform="matrix(0.47 0 0 0.56 41.66 74.15)" id="PfldCM0_fpxCkh515YO84">
<path style="stroke: none; stroke-width: 1; stroke-dasharray: none; stroke-linecap: butt; stroke-dashoffset: 0; stroke-linejoin: miter; stroke-miterlimit: 4; fill: rgb(0,0,0); fill-rule: nonzero; opacity: 1;" vector-effect="non-scaling-stroke" transform=" translate(-88.37, -88.13)" d="M 0 84.525 L 176.742 84.525 L 176.742 91.744 L 0 91.744 Z" stroke-linecap="round"/>
</g>
		<g transform="matrix(0 0.65 -0.67 0 2.41 18.81)" id="YCqc57zuPm_kklhojEGnr">
<path style="stroke: none; stroke-width: 1; stroke-dasharray: none; stroke-linecap: butt; stroke-dashoffset: 0; stroke-linejoin: miter; stroke-miterlimit: 4; fill: rgb(0,0,0); fill-rule: nonzero; opacity: 1;" vector-effect="non-scaling-stroke" transform=" translate(-88.37, -88.13)" d="M 0 84.525 L 176.742 84.525 L 176.742 91.744 L 0 91.744 Z" stroke-linecap="round"/>
</g>
		<g transform="matrix(0.51 0 0 0.55 128.7 49.87)" id="DN0TEILjek0927UlRHeQ4">
<path style="stroke: none; stroke-width: 1; stroke-dasharray: none; stroke-linecap: butt; stroke-dashoffset: 0; stroke-linejoin: miter; stroke-miterlimit: 4; fill: rgb(0,0,0); fill-rule: nonzero; opacity: 1;" vector-effect="non-scaling-stroke" transform=" translate(-88.37, -88.13)" d="M 0 84.525 L 176.742 84.525 L 176.742 91.744 L 0 91.744 Z" stroke-linecap="round"/>
</g>
		<g transform="matrix(-0.49 0.59 -0.42 -0.35 128.06 -3.28)" id="HY487OOXwlebwN7VP66kU">
<path style="stroke: none; stroke-width: 1; stroke-dasharray: none; stroke-linecap: butt; stroke-dashoffset: 0; stroke-linejoin: miter; stroke-miterlimit: 4; fill: rgb(0,0,0); fill-rule: nonzero; opacity: 1;" vector-effect="non-scaling-stroke" transform=" translate(-88.37, -88.13)" d="M 0 84.525 L 176.742 84.525 L 176.742 91.744 L 0 91.744 Z" stroke-linecap="round"/>
</g>
		<g transform="matrix(0.51 0 0 0.55 128.06 -56.42)" id="cn3lyHSdZHV_J0u6dMWYZ">
<path style="stroke: none; stroke-width: 1; stroke-dasharray: none; stroke-linecap: butt; stroke-dashoffset: 0; stroke-linejoin: miter; stroke-miterlimit: 4; fill: rgb(0,0,0); fill-rule: nonzero; opacity: 1;" vector-effect="non-scaling-stroke" transform=" translate(-88.37, -88.13)" d="M 0 84.525 L 176.742 84.525 L 176.742 91.744 L 0 91.744 Z" stroke-linecap="round"/>
</g>
</g>
</g>
</svg>